HIERARCHY
ROOT root
{
	OFFSET 0.000000 0.000000 0.000000
	CHANNELS 6 Xposition Yposition Zposition Zrotation Yrotation Xrotation
	JOINT lhip
	{
		OFFSET 0.058581 -0.082280 -0.017664
		CHANNELS 3 Zrotation Yrotation Xrotation
		JOINT lknee
		{
			OFFSET 0.043451 -0.386469 0.008037
			CHANNELS 3 Zrotation Yrotation Xrotation
			JOINT lankle
			{
				OFFSET -0.014790 -0.426874 -0.037428
				CHANNELS 3 Zrotation Yrotation Xrotation
				JOINT ltoe
				{
					OFFSET 0.041054 -0.060286 0.122042
					CHANNELS 3 Zrotation Yrotation Xrotation
					End Site
					{
						OFFSET 0.000000 0.000000 0.000000
					}
				}
			}
		}
	}
	JOINT rhip
	{
		OFFSET -0.060310 -0.090513 -0.013543
		CHANNELS 3 Zrotation Yrotation Xrotation
		JOINT rknee
		{
			OFFSET -0.043257 -0.383688 -0.004843
			CHANNELS 3 Zrotation Yrotation Xrotation
			JOINT rankle
			{
				OFFSET 0.019056 -0.420046 -0.034562
				CHANNELS 3 Zrotation Yrotation Xrotation
				JOINT rtoe
				{
					OFFSET -0.034840 -0.062106 0.130323
					CHANNELS 3 Zrotation Yrotation Xrotation
					End Site
					{
						OFFSET 0.000000 0.000000 0.000000
					}
				}
			}
		}
	}
	JOINT lowerback
	{
		OFFSET 0.004439 0.124404 -0.038385
		CHANNELS 3 Zrotation Yrotation Xrotation
		JOINT upperback
		{
			OFFSET 0.004488 0.137956 0.026820
			CHANNELS 3 Zrotation Yrotation Xrotation
			JOINT chest
			{
				OFFSET -0.002265 0.056032 0.002855
				CHANNELS 3 Zrotation Yrotation Xrotation
				JOINT lowerneck
				{
					OFFSET -0.013390 0.211636 -0.033468
					CHANNELS 3 Zrotation Yrotation Xrotation
					JOINT upperneck
					{
						OFFSET 0.010113 0.088937 0.050410
						CHANNELS 3 Zrotation Yrotation Xrotation
						End Site
						{
							OFFSET 0.000000 0.000000 0.000000
						}
					}
				}
				JOINT lclavicle
				{
					OFFSET 0.071702 0.114000 -0.018898
					CHANNELS 3 Zrotation Yrotation Xrotation
					JOINT lshoulder
					{
						OFFSET 0.122921 0.045205 -0.019046
						CHANNELS 3 Zrotation Yrotation Xrotation
						JOINT lelbow
						{
							OFFSET 0.255332 -0.015649 -0.022946
							CHANNELS 3 Zrotation Yrotation Xrotation
							JOINT lwrist
							{
								OFFSET 0.265709 0.012698 -0.007375
								CHANNELS 3 Zrotation Yrotation Xrotation
								End Site
								{
									OFFSET 0.000000 0.000000 0.000000
								}
							}
						}
					}
				}
				JOINT rclavicle
				{
					OFFSET -0.082954 0.112472 -0.023707
					CHANNELS 3 Zrotation Yrotation Xrotation
					JOINT rshoulder
					{
						OFFSET -0.113228 0.046853 -0.008472
						CHANNELS 3 Zrotation Yrotation Xrotation
						JOINT relbow
						{
							OFFSET -0.260127 -0.014369 -0.031269
							CHANNELS 3 Zrotation Yrotation Xrotation
							JOINT rwrist
							{
								OFFSET -0.269108 0.006794 -0.006027
								CHANNELS 3 Zrotation Yrotation Xrotation
								End Site
								{
									OFFSET 0.000000 0.000000 0.000000
								}
							}
						}
					}
				}
			}
		}
	}
}
MOTION
Frames: 8
Frame Time: 0.033333
1.419653 0.592358 0.975683 8.632985 4.050013 89.461756 9.929213 0.980431 -0.452191 -1.689182 -2.305232 1.398209 5.342400 4.011629 -22.028574 0.000000 -0.000000 0.000000 -5.095331 -0.058146 6.093043 5.236907 7.276170 -4.885145 4.691525 -9.324027 -7.079370 0.000000 -0.000000 0.000000 2.136891 4.194783 -7.660205 2.490244 -3.412841 5.270653 -2.640534 0.138485 -2.910704 7.842292 0.151442 -7.260948 -1.163488 -1.616132 9.926147 -37.172607 -3.042433 11.159835 -50.537384 1.597961 6.776074 9.022565 -30.963962 4.757422 14.609624 -15.641107 -10.150689 25.488643 7.311548 1.495526 11.754414 22.010405 -11.319369 -124.972687 51.022452 -111.456326 -26.283461 12.635920 -30.552156 
1.420001 0.592581 0.975852 8.834756 4.168658 89.508667 10.099041 0.356394 -0.451441 -1.779013 -1.552245 1.267161 5.744685 3.712167 -22.005441 0.000000 -0.000000 0.000000 -4.988671 -0.159599 6.186648 5.229320 7.641283 -5.101552 4.476388 -9.777576 -7.022078 0.000000 -0.000000 0.000000 2.303270 4.135441 -8.021679 2.623048 -3.678351 5.774756 -2.725569 0.272735 -3.202745 7.614800 -0.015677 -7.562918 -1.235716 -1.464256 10.979171 -37.208642 -2.975325 11.142151 -50.830331 1.328018 5.393376 9.128087 -30.483428 4.286798 11.453188 -18.001770 -8.033009 26.563788 7.571669 2.376911 8.907930 20.541579 -13.304916 -125.177582 52.417501 -104.047772 -19.662724 22.678587 -10.286755 
1.420084 0.592894 0.976194 9.042450 4.293876 89.507370 10.283050 -0.255313 -0.434639 -1.873649 -0.982548 1.164390 6.015955 3.596226 -22.036912 0.000000 -0.000000 0.000000 -4.836583 -0.167055 6.351106 5.147315 7.912339 -5.363204 4.346689 -10.182181 -6.919980 0.000000 -0.000000 0.000000 2.399882 4.159630 -8.266571 2.743148 -3.968809 6.025102 -2.850128 0.399282 -3.223782 7.808859 0.391240 -7.850512 -1.422029 -1.912406 11.797865 -37.207165 -2.781393 11.171833 -51.088089 0.691465 4.133814 9.000891 -29.684293 4.366213 10.388474 -19.678751 -6.307262 27.754645 7.352162 3.138594 5.738384 19.761086 -15.596901 -123.847523 54.100460 -95.181614 -19.137394 30.648601 11.223245 
1.419877 0.593287 0.976333 9.083910 4.311988 89.452758 10.320735 -0.405110 -0.432375 -1.889622 -0.809294 1.197920 6.023827 3.548806 -22.084338 0.000000 -0.000000 0.000000 -4.792260 -0.034062 6.446240 5.093467 7.875415 -5.463074 4.373360 -10.269886 -6.872246 0.000000 -0.000000 0.000000 2.360232 4.185584 -8.379305 2.793979 -4.004830 6.105484 -2.922664 0.365617 -3.143020 8.141506 0.706767 -7.909507 -1.616842 -2.210652 12.175295 -37.298472 -2.617117 11.338098 -50.959108 0.236110 3.879581 8.868120 -29.218853 4.418152 10.555929 -20.241354 -6.168920 28.321130 7.186233 3.416668 4.446580 19.963787 -16.566008 -122.207578 54.265724 -92.483870 -21.456450 34.082440 14.213326 
1.419731 0.593650 0.976269 8.933002 4.245730 89.337004 10.236976 -0.134304 -0.375144 -1.877614 -1.036139 1.319492 5.992207 3.619798 -22.157371 0.000000 -0.000000 0.000000 -4.896266 0.021899 6.454770 5.159893 7.868181 -5.354215 4.356988 -10.166414 -6.902188 0.000000 -0.000000 0.000000 2.229764 4.267365 -8.390667 2.832100 -3.885290 6.281681 -2.868652 0.251849 -3.250196 8.103625 0.498587 -7.679635 -1.492028 -1.948480 11.986539 -37.461888 -2.902802 11.546281 -50.787486 0.503673 4.504319 9.165706 -29.471258 4.095491 10.411324 -19.464862 -7.118903 27.936323 7.313094 3.275643 5.448354 19.944535 -15.699808 -123.022969 53.329299 -96.726714 -20.488263 29.674725 3.901359 
1.419548 0.593788 0.975998 8.742948 4.157294 89.303088 10.102759 0.364959 -0.452904 -1.816585 -1.684927 1.468675 5.762351 3.916065 -22.086986 0.000000 -0.000000 0.000000 -5.006852 0.061057 6.263074 5.219702 7.703192 -5.077729 4.490263 -9.915289 -6.953316 0.000000 -0.000000 0.000000 2.144716 4.348447 -8.307517 2.751126 -3.667812 6.063661 -2.800954 0.103973 -3.140310 8.084436 0.345700 -7.293867 -1.266326 -1.678762 11.330057 -37.425630 -3.141665 11.640345 -50.564438 0.933034 5.667532 9.134940 -30.006918 4.550427 12.597099 -17.624208 -8.961552 26.728389 7.167523 2.683468 8.225956 20.545463 -13.584786 -125.028675 52.179626 -104.764223 -24.032151 20.862451 -15.983074 
1.419500 0.594057 0.975675 8.549192 4.072811 89.185434 9.941388 0.976443 -0.428767 -1.713407 -2.508848 1.620094 5.290475 4.256584 -22.066185 0.000000 -0.000000 0.000000 -5.094060 0.018260 6.125402 5.231494 7.396714 -4.738899 4.690226 -9.426920 -7.031514 0.000000 -0.000000 0.000000 2.171625 4.276971 -7.882253 2.554728 -3.493311 5.344384 -2.717463 0.015833 -2.815262 8.099137 0.481054 -6.671925 -1.055434 -1.612402 10.304163 -37.505884 -3.233844 11.566316 -50.099045 1.370190 6.893406 8.791263 -30.583989 4.864289 16.049942 -15.115669 -10.325019 25.749050 7.002729 2.076009 10.542963 21.737536 -11.660465 -125.981673 51.134539 -112.791466 -31.416130 10.210283 -32.377972 
1.419609 0.594524 0.975522 8.526875 4.096671 89.093711 9.951618 0.969172 -0.344097 -1.680843 -2.349349 1.646777 5.290399 4.082358 -22.093546 0.000000 -0.000000 0.000000 -5.069871 -0.020746 6.165084 5.235854 7.328610 -4.669191 4.681901 -9.293648 -7.060874 0.000000 -0.000000 0.000000 2.236390 4.126472 -7.784007 2.568258 -3.581740 5.349126 -2.694697 0.007540 -2.892611 8.006695 0.475653 -6.713330 -1.160917 -1.429361 10.316123 -37.528743 -3.255295 11.545985 -50.194462 1.349161 6.725146 8.903638 -30.557545 4.614504 15.367810 -15.520389 -9.707279 25.874497 7.289411 1.988895 10.704551 22.137028 -11.872298 -124.930433 51.114544 -111.706023 -30.072516 11.777244 -29.957295 
